<svg xmlns="http://www.w3.org/2000/svg" width="400" height="80"><g fill-rule="evenodd"><path d="M147.785 21.262c11.75 0 17.317 8.96 17.317 19.824v1.695h-24.649c.613 4.348 2.988 7.54 7.606 7.54 3.125 0 5.09-1.087 6.586-3.735l10.046.676c-2.511 7.539-9.164 11.203-16.906 11.203-11.133 0-17.789-7.809-17.789-18.602 0-10.523 6.996-18.601 17.79-18.601zm79.238 0c7.739 0 15.004 3.328 15.41 11.949l-9.367.477c-.203-3.735-3.261-5.094-6.18-5.094-1.902 0-4.89.34-4.89 2.988 0 5.363 21.457 1.152 21.457 15.07 0 9.098-8.215 11.813-15.887 11.813-7.468 0-16.296-3.324-16.296-12.625v-.41l9.503-.34c.614 4.55 2.989 5.84 7.473 5.84 2.172 0 5.024-.477 5.024-3.258 0-6.317-20.915-1.223-20.915-15.277 0-8.282 7.54-11.133 14.668-11.133zm-110.308.203c2.648 0 5.297.68 7.402 2.308 4.004 3.055 4.684 7.332 4.684 12.086v21.586h-10.25V36.742c0-3.394-1.293-6.722-5.23-6.722-4.75 0-6.044 4.21-6.044 7.94v19.485H97.23V22.281h9.778v4.074c2.441-3.125 5.633-4.89 9.707-4.89zm55.785.816l5.363 21.996 5.5-21.996h8.828l5.434 21.996 5.363-21.996h10.184l-10.184 35.164h-9.304l-5.907-23.758-5.84 23.758h-9.433l-10.258-35.164zm-24.441 6.856c-4.278 0-6.454 2.039-7.536 6.043h14.051c-.336-3.532-2.918-6.043-6.515-6.043zm0 0"/><path d="M265.617 31.387c5.36 0 11.016 3.246 11.36 9.59l-6.985.296c-.441-2.507-1.965-3.933-4.523-3.933-4.133 0-5.364 3.734-5.364 7.277 0 3.492.985 7.57 5.215 7.57 2.657 0 4.575-1.718 4.871-4.374l7.032.343c-1.328 7.032-5.805 10.18-12.051 10.18-8.113 0-12.59-5.555-12.59-13.375 0-7.965 4.82-13.574 13.035-13.574zm26.016 0c7.82 0 12.738 5.754 12.738 13.379 0 7.867-5.508 13.57-13.426 13.57-7.968 0-12.937-5.508-12.937-13.328 0-8.262 5.363-13.621 13.625-13.621zm74.133 0c6.933 0 11.554 2.015 11.554 9.59v11.015c0 2.61.2 4.278.836 5.41l.149.196h-7.621l-.344-2.309c-2.41 1.574-3.887 3.047-7.969 3.047-4.672 0-8.902-2.805-8.902-8.211 0-5.559 4.328-7.477 9.097-8.164l3.446-.492c2.16-.297 3.933-.492 3.933-2.114 0-2.117-2.707-2.359-3.886-2.359-2.657 0-4.473.98-4.473 3.195h-6.691c.44-8.46 8.507-8.804 10.87-8.804zm19.617.758V46.75c0 2.805.535 5.508 3.949 5.508 3.61 0 4.34-3 4.34-6.836V32.145h6.973v25.472h-6.825v-2.804c-1.418 2.312-4.586 3.445-7.172 3.445-7.77 0-8.414-6.235-8.437-11.024v-15.09zm-132.98 18.152v7.328h-7.329v-7.328zm67.066-18.762c3.05 0 5.61 1.426 6.789 4.375 1.574-2.754 4.476-4.328 7.625-4.328 1.918 0 4.18.594 5.703 1.82 2.61 2.141 2.746 4.735 2.754 7.785v16.41h-7.23V44.224c0-2.754-.247-6.098-3.688-6.098-3.695 0-3.926 3.09-3.934 5.887v13.586h-7.281V43.19c0-2.164-.539-5.066-3.738-5.066-3.594 0-4.012 3.316-4.031 5.715v13.758h-7.18V32.125h7.18v3.395c1.523-2.856 3.835-3.985 7.03-3.985zm32.082 18.738v7.329h-7.328v-7.329zm18.59-4.87c-.688.245-1.13.445-1.77.59-2.016.542-7.574.589-7.574 3.886 0 2.113 1.918 2.754 3.394 2.754.54 0 4.082-.051 5.95-3.297zm-78.852-8.212c-4.375 0-5.851 3.739-5.851 7.524 0 3.687 1.375 7.719 5.753 7.719 4.477 0 5.754-4.18 5.754-7.965 0-3.64-1.379-7.278-5.656-7.278zm0 0" fill="#a1a6a9"/><path d="M35.457 0h10.129c1.117 0 2.023.906 2.023 2.023v10.125a2.025 2.025 0 01-2.023 2.028H35.457a2.025 2.025 0 01-2.023-2.028V2.023C33.434.906 34.34 0 35.457 0zm0 0" fill="#c90000"/><path d="M35.457 66.824h10.129c1.117 0 2.023.906 2.023 2.028v10.125A2.024 2.024 0 0145.586 81H35.457a2.024 2.024 0 01-2.023-2.023V68.852c0-1.122.906-2.028 2.023-2.028zm0 0" fill="#00838d"/><path d="M2.04 33.414h10.128c1.117 0 2.023.906 2.023 2.023v10.126a2.024 2.024 0 01-2.023 2.023H2.039a2.024 2.024 0 01-2.023-2.023V35.437c0-1.117.906-2.023 2.023-2.023zm0 0" fill="#7c28b6"/><path d="M68.875 33.414h10.129c1.117 0 2.023.906 2.023 2.023v10.126a2.024 2.024 0 01-2.023 2.023H68.875a2.025 2.025 0 01-2.027-2.023V35.437c0-1.117.906-2.023 2.027-2.023zm0 0" fill="#81888c"/><path d="M65.563 8.281l7.164 7.164c.789.79.789 2.075 0 2.864l-7.157 7.16c-.789.789-2.07.789-2.863 0l-7.16-7.168a2.02 2.02 0 010-2.863l7.156-7.157a2.016 2.016 0 012.86 0zm0 0" fill="#f46a00"/><path d="M18.336 55.531l7.16 7.168a2.02 2.02 0 010 2.864l-7.152 7.16c-.793.789-2.074.789-2.864 0l-7.164-7.168a2.028 2.028 0 010-2.864l7.157-7.16a2.028 2.028 0 012.863 0zm0 0" fill="#1691db"/><path d="M18.32 8.266l7.164 7.164c.79.793.79 2.074 0 2.863l-7.156 7.16c-.793.79-2.074.79-2.863 0L8.3 18.29a2.032 2.032 0 010-2.867l7.156-7.156a2.02 2.02 0 012.863 0zm0 0" fill="#d51387"/><path d="M65.578 55.547l7.164 7.164c.79.793.79 2.074 0 2.863l-7.156 7.16a2.02 2.02 0 01-2.863 0l-7.16-7.164a2.02 2.02 0 010-2.863l7.152-7.16a2.02 2.02 0 012.863 0zm0 0" fill="#4aa90f"/></g></svg>